<svg width="32" height="33" viewBox="0 0 32 33" fill="none" xmlns="http://www.w3.org/2000/svg">
<path d="M22.8354 23.2526L22.3639 23.724C22.1036 23.9843 21.6815 23.9843 21.4211 23.724L16 18.3028L10.5788 23.7239C10.3185 23.9843 9.89638 23.9843 9.63603 23.7239L9.16462 23.2525C8.90427 22.9922 8.90427 22.5701 9.16462 22.3097L14.5858 16.8886L9.16462 11.4674C8.90427 11.2071 8.90427 10.7849 9.16462 10.5246L9.63602 10.0532C9.89637 9.79283 10.3185 9.79283 10.5788 10.0532L16 15.4744L21.4211 10.0532C21.6815 9.79282 22.1036 9.79282 22.3639 10.0532L22.8354 10.5246C23.0957 10.7849 23.0957 11.2071 22.8354 11.4674L17.4142 16.8886L22.8354 22.3097C23.0957 22.5701 23.0957 22.9922 22.8354 23.2526Z" fill="white"/>
</svg>
