<svg width="32" height="33" viewBox="0 0 32 33" fill="none" xmlns="http://www.w3.org/2000/svg">
<path d="M25.3336 16.5557V17.2223C25.3336 17.5905 25.0352 17.889 24.667 17.889H17.0003V25.5557C17.0003 25.9238 16.7018 26.2223 16.3336 26.2223H15.667C15.2988 26.2223 15.0003 25.9238 15.0003 25.5557V17.889H7.33366C6.96547 17.889 6.66699 17.5905 6.66699 17.2223V16.5557C6.66699 16.1875 6.96547 15.889 7.33366 15.889H15.0003V8.22232C15.0003 7.85413 15.2988 7.55566 15.667 7.55566H16.3336C16.7018 7.55566 17.0003 7.85413 17.0003 8.22232V15.889H24.667C25.0352 15.889 25.3336 16.1875 25.3336 16.5557Z" fill="black"/>
</svg>
