<svg width="120" height="49" viewBox="0 0 120 49" fill="none" xmlns="http://www.w3.org/2000/svg">
<path fill-rule="evenodd" clip-rule="evenodd" d="M33.0608 14.7461L23.1954 34.0319H13.929L18.0577 26.039H17.8724C14.4663 30.4606 9.3843 33.3714 2.14322 34.0319V26.1497C2.14322 26.1497 6.77551 25.876 9.4987 23.013H2.14322V14.7462H10.41V21.5455L10.5955 21.5448L13.9737 14.7462H20.2256V21.5024L20.4111 21.5021L23.916 14.7461H33.0608Z" fill="black"/>
<path d="M86.8577 31.9032H89.5201V16.6211H86.8577V31.9032Z" fill="black"/>
<path fill-rule="evenodd" clip-rule="evenodd" d="M72.1799 31.7471C72.7584 31.9876 73.3469 32.1079 73.945 32.1079C74.9332 32.1079 75.8175 31.8674 76.5977 31.3862C77.3778 30.9051 77.9825 30.242 78.4116 29.3968C78.8408 28.5451 79.0553 27.5795 79.0553 26.5003C79.0553 25.421 78.8342 24.4556 78.3921 23.6038C77.95 22.7521 77.3356 22.0922 76.5488 21.6241C75.7622 21.1495 74.8682 20.9154 73.8669 20.9219C73.2299 20.9219 72.6187 21.0455 72.0335 21.2925C71.4484 21.5396 70.9608 21.8907 70.5707 22.3458C70.5406 22.3804 70.5113 22.4154 70.4829 22.4508V16.6309H67.8108V31.9032H70.4634L70.4581 30.4765C70.5266 30.5606 70.6 30.6427 70.6779 30.7231C71.1005 31.1588 71.6012 31.5 72.1799 31.7471ZM74.9105 29.2798C74.4749 29.5464 73.9775 29.6796 73.4183 29.6796C72.8657 29.6796 72.3586 29.543 71.897 29.27C71.4353 28.9904 71.068 28.6101 70.7949 28.129C70.5283 27.6479 70.3951 27.1017 70.3951 26.4905C70.3886 25.8794 70.5186 25.3333 70.7852 24.8522C71.0583 24.3645 71.4256 23.9874 71.8872 23.7209C72.3488 23.4478 72.8593 23.3145 73.4183 23.321C73.9775 23.3145 74.4749 23.4445 74.9105 23.7111C75.3526 23.9712 75.6906 24.345 75.9247 24.8326C76.1653 25.3138 76.2856 25.8664 76.2856 26.4905C76.2856 27.1147 76.1653 27.6674 75.9247 28.1485C75.6906 28.6296 75.3526 29.0067 74.9105 29.2798Z" fill="black"/>
<path d="M36.918 17.5476H39.9607L42.6826 27.4879L45.5782 17.5476H48.1138L51.2541 27.2884L53.8677 17.5476H56.6569L52.5414 31.9032H49.918L46.7247 22.3871L43.7935 31.9032H41.1408L36.918 17.5476Z" fill="black"/>
<path fill-rule="evenodd" clip-rule="evenodd" d="M61.1504 32.1566C60.0905 32.1632 59.1348 31.9291 58.2831 31.4545C57.4378 30.9734 56.7715 30.3069 56.2838 29.4552C55.8027 28.6036 55.5622 27.6316 55.5622 26.5392C55.5622 25.4795 55.8093 24.5205 56.3034 23.6623C56.7975 22.8041 57.4671 22.1344 58.3124 21.6533C59.1576 21.1722 60.1003 20.9316 61.1405 20.9316C62.3108 20.9316 63.3348 21.1917 64.2125 21.7118C65.0968 22.232 65.7567 22.9699 66.1923 23.9256C66.6344 24.8749 66.7937 25.9639 66.6702 27.1927H58.3165C58.3399 27.6822 58.462 28.1276 58.683 28.5288C58.93 28.9708 59.2746 29.3154 59.7167 29.5625C60.1589 29.8096 60.6529 29.9331 61.1991 29.9331C61.6152 29.9266 62.0021 29.8551 62.3596 29.7186C62.7172 29.5756 63.0195 29.3838 63.2666 29.1431C63.5202 28.9026 63.699 28.6296 63.803 28.324H66.5922C66.4231 29.0717 66.0851 29.7381 65.578 30.3232C65.0707 30.9019 64.4337 31.3537 63.6664 31.6788C62.8993 32.0039 62.0606 32.1632 61.1504 32.1566ZM58.6927 24.5108C58.5369 24.7825 58.4289 25.075 58.3688 25.3885H63.9063C63.8661 24.9925 63.7439 24.6317 63.5397 24.306C63.3056 23.9224 62.987 23.6266 62.584 23.4185C62.1809 23.2039 61.7257 23.0967 61.2186 23.0967C60.6789 23.0967 60.1881 23.2202 59.7459 23.4673C59.3039 23.7143 58.9527 24.0622 58.6927 24.5108Z" fill="black"/>
<path d="M81.0158 21.156C81.0158 20.2848 81.214 19.5111 81.6107 18.8349C82.0072 18.1523 82.5632 17.6224 83.2784 17.2453C84 16.8617 84.842 16.6634 85.8042 16.6504V19.0202C85.3556 19.0267 84.972 19.121 84.6535 19.303C84.3414 19.4786 84.1008 19.7354 83.9317 20.0735C83.7762 20.3847 83.6922 20.7456 83.6798 21.156H85.7457V23.4088H83.6782V31.9032H81.0158V23.4088H79.2994V21.156H81.0158Z" fill="black"/>
<path fill-rule="evenodd" clip-rule="evenodd" d="M96.2879 32.1371C95.2021 32.1371 94.2301 31.8998 93.3719 31.4253C92.5202 30.9441 91.8505 30.281 91.3629 29.4357C90.8818 28.5841 90.6412 27.6186 90.6412 26.5392C90.6412 25.4535 90.8818 24.4848 91.3629 23.6331C91.8505 22.7748 92.5202 22.1084 93.3719 21.6338C94.2301 21.1592 95.2021 20.9219 96.2879 20.9219C97.3801 20.9219 98.3554 21.1592 99.2136 21.6338C100.078 22.1084 100.751 22.7716 101.232 23.6233C101.713 24.475 101.957 25.447 101.964 26.5392C101.957 27.6186 101.713 28.5841 101.232 29.4357C100.758 30.281 100.088 30.9441 99.2233 31.4253C98.3587 31.8998 97.3801 32.1371 96.2879 32.1371ZM96.2879 29.6893C96.86 29.6893 97.3672 29.5593 97.8092 29.2992C98.2514 29.0327 98.5927 28.6621 98.8333 28.1874C99.0738 27.7063 99.1941 27.1569 99.1941 26.5392C99.1941 25.9151 99.0738 25.3625 98.8333 24.8814C98.5927 24.4002 98.2514 24.0297 97.8092 23.7696C97.3672 23.503 96.86 23.3697 96.2879 23.3697C95.7223 23.3697 95.2184 23.503 94.7762 23.7696C94.3407 24.0297 94.0025 24.4002 93.762 24.8814C93.5214 25.3625 93.4044 25.9151 93.4109 26.5392C93.4109 27.1569 93.5312 27.7063 93.7717 28.1874C94.0188 28.6621 94.3568 29.0327 94.786 29.2992C95.2216 29.5593 95.7223 29.6893 96.2879 29.6893Z" fill="black"/>
<path d="M104.841 21.156H101.876L105.085 31.9032H107.679L109.789 25.039L112.067 31.9032H114.622L117.841 21.156H115.159L113.333 27.8455L111.316 21.156H108.722L106.715 27.9928L104.841 21.156Z" fill="black"/>
</svg>
